/* XPM */
static char *_09a41eb111d4cd395b5ecf2315aafb9uCQLtxtOq0sYKL34[] = {
/* columns rows colors chars-per-pixel */
"64 64 59 1 ",
"  c #0B8686",
". c #0B8887",
"X c #0E8789",
"o c #0E8C8C",
"O c #118D8E",
"+ c #0F908F",
"@ c #11908F",
"# c #128F90",
"$ c #0F9191",
"% c #149493",
"& c #189696",
"* c #159996",
"= c #189997",
"- c #179799",
"; c #189799",
": c #169B99",
"> c #199D9B",
", c #1BA19E",
"< c #1DA4A2",
"1 c #1FA9A5",
"2 c #1FABA8",
"3 c #20A6A4",
"4 c #21AAA6",
"5 c #23ADAA",
"6 c #26B2AD",
"7 c #28B3AE",
"8 c #27B5B0",
"9 c #29B6B1",
"0 c #2CBAB5",
"q c #2EBEB8",
"w c #30BCB7",
"e c #31BFB9",
"r c #2FC0B9",
"t c #30C0B7",
"y c #34C2BB",
"u c #33C5BB",
"i c #32C0BC",
"p c #33C2BC",
"a c #35C2BC",
"s c #32C4BE",
"d c #36C4BF",
"f c #38C3BD",
"g c #39C5BF",
"h c #34C8BF",
"j c #33C5C0",
"k c #36C6C0",
"l c #3AC7C2",
"z c #3CC7C1",
"x c #36C8C1",
"c c #3BC8C2",
"v c #3EC8C2",
"b c #39CAC4",
"n c #3FC9C4",
"m c #3BCCC4",
"M c #40C9C3",
"N c #41CAC4",
"B c #43CDC7",
"V c #45CFC7",
"C c #44CDC8",
/* pixels */
"p0e0psxrppppspxpdrdrspzvBMpdpppskqqrmsdppq0sxksp0e00ppsppp0qppq0",
"00qqqpsp0rrdbspxkpsspyzgvBsss0srppcsdksddppsxrscrsppp00kqq0p0p0q",
"00cpdcddccppbsxmdlzpsprpdkVvBspppspskcsps0pcsskpdddkqppa0p0p0se0",
"w0cagssddrsxxppjxvzspjpddxvNCpp0ppspppxkspdppxduppspsds0q0ppqrrp",
"98ae0sjsskdsdxssblzpsprdrrfcncsurpdss0hrsxddapsrppp0qp0q0qp0prpp",
"00pa06ppc0pprdspppxpppcppdskprcdqssxxphxdrqreep0lvrs0dpe80090q00",
"000000escpp0prr0xxjdprrdxpsjppqdptspssspmdhxpqp0aBkssxq090600000",
"090e00q00e0d00qqqqkpxprr00ppp0s0p00pqsrqqq0r0pqqrppca0050e000069",
"0q8009q000q0pp00rd0rppeqq0pp0rqqrspspqeqd0qp0000qpqqd0e000009q76",
"wp0a0epqa00p0ppppdpcpyppe0dpxkppppprdpdspcdk0eppdprpa0pe0e000090",
"0008q0000pqprp0sprpqqpppe0pr8sppqpppqppqr0prs9q00qq0009696069765",
"0099000epqqqqpp0dpppqrp0p0pr000pqq0ppdsqc0ecp600q090070699990566",
"0996608e000pey009pqrrp00pr90pqpq0007000q0pq00erp000q0q0909065990",
"99998000q0qpal0900prrpp0p00q0qr00q000000q00q0800q000000004095759",
"5560e9709996000e000q0007090000q000epqe0p000000ag0q96960666596947",
"4609708970000e000e69p609q0qq890808e8000e0000qayyp066697669969765",
"56e000000e000000709e00007qwq000dp0a00p0e0906qwdg0e06799706996644",
"97665577960909600ww0009709p00009a0p000q0000666907029970554661555",
"40906760660906q09e0900909090e009006000qep00060009906966764665694",
"957699660765690776009056000090007097667009886900675596669547465<",
"59066899997569000796060000000q09707079699008790000775655665566<<",
"657796076609696969799979000000009p009600006999060944775666678615",
"5677516060775690557967007669095979590564p97577965669556661446544",
"7754456669550790955669000066009905990679999556566696665554514114",
"5464446576555456755090996996960605w6766967566666<5555<544465454<",
"455554265566569679590006966089096579965676966959<5545<4<,555511<",
"<<4,<4,4445511646645<54555551954<358565761555<<455<443<<<,>:,3<<",
"<<<44<14<<455566665765456155664495555546569515<55141541443,4*43<",
"445<4544<4696558695455595495557775766766657554<555545455<3<<4<<4",
"1<54<,54<5<4545540965657<,7651455166746<4554141697<55<,45<<,<<<<",
"<464<34<344<<4<5<5956555<567565676463<555544554666544443<<<<<<54",
",<4<<4<666544,4<41<5,1511<5<54<4<546<<4444944,<<4<1<54,3,<44<><:",
"<,43<<<555<4<5<1<<4445455144444544445,454<45434<,5<<<<4<45<,<,<<",
"4<>4<<<647<5955445<54555,445646557555547644<5<34<44<444,454<>,>,",
"<,44<<<<<<<<4<5,45<444454<51514<<3<4434<<34<4<<4<1<45><<,,:<::::",
",<<,<<<,<<,>,<<64,<4<45<<4555<<<<344<,>5<<<1<<,<<1,43>3>><>,*,>,",
",,<,:<4<:<3<,<<:<<4<<<4<<4<4<44<5<3<4<,<7,43,<45,><>:<:<<,<>,*:,",
":>><>,<>,<<<<<<4<<<4<4<,,<45<145,,4<<<4<34<<>341<,3,><>>>*><>>:>",
"<:,>,>:<3*<,<>:,,,,4<3<<444<44444<,,75<3<3<4,,<<<,3,,,*>>,<:,*:>",
"<::,>,:<3><><>,<<<:<4,4<,5<4<<<<1,><4<<3,>,,><,>>>>:3>%><>3,,,*:",
",<,,,<,:<>>3,,>,3>>3,<<4345<<454<,3<44<>4,,,<<>,<,<,<>%:>>*,>:*<",
"::><<%>4<5<,>,,,,3:<<>,,<,<<,44,*<>*<,3>:,<>,<,<<:>><:>>:,<,%*::",
"%*,,::><<4,,<>3,:<><>>,,3:>,,1<3<,<,4>,,<<<>,,<,::>****,,<<4***%",
"::%>>>*:,,*>>:4<,:34,<,,><<<<,<<>><<<>>*>:>:>:::::3>>:*=*%**%%>%",
"%:::>:*,>>>>>>><:::,>>,>:>><><4>>><3,<>,>:>>**,,:>:>:*>*::%%****",
"%*>*::**>>>=:*>><:>,>>,,*>,<><,<,*:>>>>>:*3>***>*>>>*:%%*:>%***%",
"*:>**:*>*%**>*>:%>:,:%>:>>,,>><>>>:*>:>:,>,,,,:<*:*:*%*%:*%*%O:%",
"*:>*:%>*:*>::%*>%**>,>*<:>*>:,>:%>>>::>>>*:>:,>,*:>>::>%>*%*%@%%",
"::*:%:%:%%%:>*:>:>>%>:*:%%:>:>>:<%*::>::>*>>*%:*%%:%%%*%%&Oo*%:%",
":%%%*:%:%*:>>>::>>>:>><<>>**:::,*>,,>>>>>*%>%*>*%%%%:%*%%%o**%*%",
"%:%*:*%***:%%%&**%***:>>:****:*>>*>3,,:**:**:%*:%%%%%%O*%*:O%%OO",
"*o*%%*%+%%%%%**%=:*:%:%>****%**>:**:%,:%****>%%o*:%*o*%%@%@%o%%O",
"**%>%%**:**>*%*%@:******>%*:**:%>*%:>::*;%%::%%%*%%*%*%@@:***%Oo",
"%%@%Oo*@%o%>*%**%*%**:::%*:*%%:%%%>***:*>%%*%**%*%%%**%o%O&%o@Oo",
"ooO*%%%o%O*%>%%*>*%%,:%,>%**%#*:%$%%*****%%*%*%*=>.%@%%*#o%OO%%o",
"&&#%Oo%%%Oo%*%%%%@%%%%%%**;%%%%%o%%@%%%**:*+*%%o*% %%O%%oO%OooOX",
"@@%%%O*%%%%:*%o@%%*%%%%%O%%@%%*%%%*%%*O**>:=***@%%%o%%%oO%o%%ooO",
"O%% oOOOo.O%%O%O%%O%%%%%O%O%%%%%o*%%%o%%o%@o@%%.%@#o%ooooo.oOooO",
"*OOoO%%OO%o%O%o=%#*%**%%%%**%*:o*%%**o*$*@::*OOO%O%*%Oo*oo*oO@OO",
"@OOOO&**&%@O%%%%%%*%%O@%%%*&&:%*%*%*@**%%%%**O%OOo%*%@O%oo**o o%",
"OOXOOOOO%OooO%%%Oo%#%o>%O@%Oo+@%OO@@%%%*%*oO%%%O%o%OOOOoO@O%@O o",
"OoOOoOo oOOOoO%-O%o*%@%&o%%o@%%@o#@#%%o*Oo%%%%Ooo* O%O%Oo%ooOoOo",
"#OOoooOOoOOoOOo%ooo%OOX#O@#*OO%OoX%%#O#%%o%%%OOOoOoOOOO#%%oooOOO",
"OOOOOOOoOOO%oo%oXOOoOOOoo%oo%OO#%%%%%%Oo%%#%o%O&o#oo %#%oOOo%OOO"
};
