/* XPM */
static char *result[] = {
/* columns rows colors chars-per-pixel */
"64 64 149 2 ",
"   c #000403",
".  c #000C0B",
"X  c #010E11",
"o  c #051415",
"O  c #081616",
"+  c #061816",
"@  c #091817",
"#  c #071719",
"$  c #091619",
"%  c #0A1A1A",
"&  c #0A201D",
"*  c #0C2323",
"=  c #0D2A28",
"-  c #123131",
";  c #1E3C35",
":  c #17393B",
">  c #1A3B3D",
",  c #203737",
"<  c #243E3E",
"1  c #2B3A3A",
"2  c #25403D",
"3  c #1D3E41",
"4  c #1E4343",
"5  c #144A47",
"6  c #1F5458",
"7  c #244444",
"8  c #2A4644",
"9  c #254846",
"0  c #2C4946",
"q  c #254649",
"w  c #2C4748",
"e  c #26494A",
"r  c #2C4B4A",
"t  c #344745",
"y  c #344B46",
"u  c #314D4B",
"i  c #384F49",
"p  c #33514E",
"a  c #39544F",
"s  c #2C4F51",
"d  c #304F50",
"f  c #2C5252",
"g  c #355452",
"h  c #3A5653",
"j  c #3B5955",
"k  c #3D5B59",
"l  c #26605F",
"z  c #1F5E61",
"x  c #2C5F64",
"c  c #1E6467",
"v  c #0D7375",
"b  c #0E7579",
"n  c #0D7A7B",
"m  c #117477",
"M  c #10777A",
"N  c #117B7D",
"B  c #357375",
"V  c #397173",
"C  c #347A7C",
"Z  c #3C7B7C",
"A  c #415955",
"S  c #415D5C",
"D  c #45615E",
"F  c #456361",
"G  c #4A6663",
"H  c #4E6964",
"J  c #526966",
"K  c #546E6A",
"L  c #5A6F6D",
"P  c #57716C",
"I  c #5B726E",
"U  c #537271",
"Y  c #5E7572",
"T  c #5F7874",
"R  c #617774",
"E  c #637975",
"W  c #697D77",
"Q  c #657C7A",
"!  c #697D7A",
"~  c #6C827D",
"^  c #72897F",
"/  c #0F7F81",
"(  c #0F8484",
")  c #118387",
"_  c #17868A",
"`  c #128D8C",
"'  c #149597",
"]  c #169897",
"[  c #1A9896",
"{  c #169799",
"}  c #18979A",
"|  c #17999B",
" . c #1A9C9D",
".. c #249F9F",
"X. c #1CA09F",
"o. c #139FA1",
"O. c #1D9EA1",
"+. c #209FA2",
"@. c #13A2A4",
"#. c #1EA3A4",
"$. c #1FA8A6",
"%. c #16A6AA",
"&. c #1FA6A8",
"*. c #17A8AC",
"=. c #1FA8AA",
"-. c #15B4B6",
";. c #1BB4B4",
":. c #20A4A5",
">. c #28A4A5",
",. c #21A8A7",
"<. c #21A6A9",
"1. c #22A9AA",
"2. c #27AEB0",
"3. c #29AFB0",
"4. c #35AEB0",
"5. c #6E8580",
"6. c #6F8880",
"7. c #728682",
"8. c #758C85",
"9. c #798E87",
"0. c #768E89",
"q. c #798F89",
"w. c #779187",
"e. c #789087",
"r. c #77918A",
"t. c #7C938C",
"y. c #7E9690",
"u. c #81958F",
"i. c #829792",
"p. c #839A93",
"a. c #8B9F98",
"s. c #8DA39B",
"d. c #91A69E",
"f. c #99AA9F",
"g. c #8BA4A1",
"h. c #90A6A1",
"j. c #96ABA3",
"k. c #9AAEA5",
"l. c #9CAFA8",
"z. c #9CB1A7",
"x. c #9EB2A9",
"c. c #A1B5AC",
"v. c #A3B9AE",
"b. c #A5B7B0",
"n. c #A5B9B1",
"m. c #AABDB4",
"M. c #AEC0B7",
"N. c #ABC4B9",
"B. c #AFC8BD",
/* pixels */
":.O. .#.1.=.,.,.=.<.<.| | O.O.O.O.O.O.O.#.#.#.#.1.1.#.1.#.#.1.2.1.=.=.1.1.:.<.<.#.:.<.O. .+.#.}  .}  . . ...| +. .O.| O.+.|  . .",
" .<.,.,.,.1.1.#.#.,.,.#.2.1.#.<.1.,.1.,.<.,.<.&.<.1.#.&.=.#.<.1.=.<.1.,.<.o.+.|  .O.O.O.O.}  .#. .O.O. . . .O.:.} O.} O.' :.} :.",
"} ,.<.,.#.,.<.<.1.2.#.<.1.,.#.1.<.#.<.=.<.,.=.,.,.<.,.=.1.<.O.<.:.<.#.#.<. .O.| O.}  .O.:.' | } O.| | #.|  .O.:.O. .O. .{ O.:.' ",
" .<.<.=.<.#.,.,.1.&.<.<.1.1.1.1.<.<.,.,.#.<.#.<.O.<.&.#.,.#.1. .:.,.,.<.#.O. .+.O. .O. .O.<.<.<.1.#.,.,.#. .O.| :.] ,.,.:.=.1.:.",
"| |  .| O.#.,.<.<.<.1.1.,.,.,.1.2.1.=.<.,.#.#.,.#.<.:.#.} O. .O.} :.#.X. .}  .X.O.:.#.O. .=.=.<.=.,.<.#.O.#.| O. .O.O.=.1.&.1.1.",
":. . ...O.| X. .O.| +.1.=.<.,.1.#.<.O.|  .} #. .| O. .:.O.|  .:. .O.| O. . . . .<.1.,.#.<.#.<.=.<.:.=.,.,.<.<.1.$.#.,.<.1.<.O.&.",
" . ...| #.} X. .O.O.:.<.=.=.<.#.1.:.#.O.O.' O.+.+.| |  .{ O.} O.#.+.#.O. . . .} <.1.1.2.,.<.<.#.=.<.1.<.1.,.1.1.#.#.#.<.=.#.&.:.",
" . . .O. . . . . .+.| O.O.| O.O.O. . .O.#.O.O.:. .O.| :.| O.#.} X.} { =.=.<.,.1.:.<.1.1.<.,.1.=.<.<.1.<.<.<.1.O.=.1.1.1.O.O.O.:.",
"| | O.O.| { O.O.}  .| O.O.O.| } O. .}  .| } :.} #.|  .O. . .O.O. .#. .1.1.=.1.=.1.=.<.<.1.&.=.O.<.3.1.,.1.#.1.,.1.=.:.<. .:.[  .",
"1.1.:.1.&.#.#.} O...O.O.|  .:.O. . .O. .|  .O. .| ' O.} #.=.#.,.,.,.#.1.1.<.1.1.&.:.,.1.,.,.1.1.=.1.| O.O. .O.O.#.#. .}  . .O. .",
"<.:.<.=.&.#.O.O.| :.} +.| O.}  .O.:.O.O.#.O.O. .+.} #. .' =.1.1.,.=.,.#.#.<.2.#.#.=.<.,.#.#.1.,.#.#.#. . . .|  .X.| :. .O.| O. .",
"1.1.=.1.1.:.<.1.,.<.,.:.2.:.O.| :.| | O.} ' #.} #.| #. .{ #.<.<.<.,.<.,.#.=.1.,.<.&.<.1.#.| #. .O.|  .} O. .' O.| +.O.| +. . .+.",
"1.1.<.:.1.1.#.1.,.=.#.<.#.<. .>.| O.O.O. .#. . .+. .O. .:.#.<.,.#.1.=. .,.,.=.,.=.1.#.=.#.,.:. .| O. .O.O.#.O.}  .#.O.O. .O.O.O.",
"+.O.| O.,.,.<.=.=.=.1.,.<.<.,.#.<.#.1.,.,.#.,. .O.| ' y r g j h h k h k D S k r #.,.| :.{ } O. .O.O.X. .| #.#.#.,.#.<.#.#.1.O.2.",
"O.{ ' :.1.,.<.1.#.#.=.#.1.<.=.#.<.<.,.1.,.#.1. .}  .{ p g h D j k k D S G S k h *.=. . .{ | ,.O.O.O. . .+.} 1.,.=.<.&.&.,.#.=.#.",
" .} +. .O.| O.O.O.=.1.=.,.=.#.,.=.1.=.=.1.0 u 0 r 0 u 7.6.7.8.j.l.l.l.z.x.x.q.5.e > 4 4 >.O. . .<.=.,.#.=.1.<.<.#.<.1.&.=.=.1.=.",
"| :. .#. . .#. . .,.1.1.,.:.<.=.#.#.#.=.1.0 0 0 7 u a 8.8.0.r.c.v.k.c.l.z.c.^ ~ e 4 3 > >.o.O.#.,.<.1.1.=.=.#.<.1.,.<.1.#.#.#.#.",
"| |  . .O. .+... . .:. . .:.' #.| #.<.u a t.q.e.q.q.t.0.q.x.x.l.b.z.c.c.v.c.l.c.k.l.R R Y r 4.1.<.=.#.,.#.1.1.<.O. .#.O. .O. .O.",
"+.:.| X. .| O.O.| #.O. .|  .+.| O.=.$.u u t.0.t.e.y.t.t.y.x.x.x.c.z.x.j.l.k.c.c.x.x.E Q R g 4.<.&.<.1.1.<.,.#.,.O.O. .O. .O.O.' ",
"#.| O.} +. .| | #.|  . . . .#.} { 0 u ~ ~ x.k.x.c.t.t.z.k.x.l.z.c.c.l.f.c.j.c.c.t.t.t.q.q.7.h j w =.#.O.#. .#.} :. .} X.{ | #. .",
"#.O.:. . . .:.#. .#. .{ [ :.O. . .0 u ! 8.c.c.z.x.e.p.k.l.c.x.x.k.c.l.z.c.c.k.z.i.e.t.t.t.5.k u u ,.<. . . . . .O. .| O.#.:.|  .",
"=.<.#.=.3.<.<.<.O.| #. .O.:. .o.} w u 8.0.x.c.c.c.x.c.t.t.t.t.c.z.c.x.l.k.c.u.t.t.p.t.l.z.x.x.j.x.8 1 | #.O.#.} |  .O.O.#. .}  .",
"#.,.<.,.1.#.<.1. .#.#. . .O.| O.| 8 u 0.8.x.k.v.k.c.k.y.y.y.q.j.c.z.k.c.b.c.q.q.i.u.t.l.c.c.l.l.k.8 1 O.O.| +. .O. .O.O.#.#. .| ",
",.=.,.#.=.<.,.#.#.,.=.#.1.=.<.p u t.9.j.k.c.c.c.c.x.k.0.t.t.q.0.e.8.u.9.u.9.t.t.v.z.c.z.l.x.z.x.x.0 1 } | |  . .| O.#.=.=.<.<.,.",
"1.:.1.#.#.1.3.1.<.#.1.&.=.#.,.p u u.t.x.x.n.v.x.z.x.x.e.t.y.q.y.u.9.i.y.t.t.t.q.b.b.x.x.b.z.x.x.j.w , } O.' O. .O.#.,.2.<.1.1.,.",
"| O.O.O.+. .| #.=.#.1.<.=.#.,.u 0 t.q.z.c.v.c.c.b.r.t.g f q r q 7 q e q 4 t.0.k.x.b.b.x.x.b.x.x.j.E ! 8 #.#.<.=.#.1.1.,.1.<.<.<.",
"O.O.O.| +.#. .+.1.1.<.1.#.#.1.0 r r.t.x.z.x.z.c.c.i.t.s r s q 7 7 7 q q > t.w.c.x.x.x.l.x.k.c.x.x.E 5.0 &.&.,.#.=.#.=.<.1.,.=.O.",
"| | {  .,.} } | O.O.{ +.| w g ~ ~ 0.0.t.t.q.t.~ ~ 5 e q r o o O o # o o   g g ~ p.c.x.b.x.x.t.t.9.R E 4 @.#.#.<.=.<.<.1.O.O.O.| ",
"O.} O.| O.+.O.O.O.O.#.<.O.u 0 ~ ~ 8.7.9.q.u.p.0.5.f f f s o O O o o o o   k k ~ a.j.b.n.x.z.8.9.0.Q Q 7 %.<.:.<.1.<.,.,.<.#.|  .",
"O.O.O.O. .O.O.O.| O.| O. .r p 5.~ c.c.c.k.! Q D r X $ o o X o $ $ o o o $ o . 7 0.5.y.q.^ k.7.9.8.R T u o.| }  .O.| | } |  .#. .",
"1.,.1.1.#.O.O.:.O.O.O.'  .0 u ~ W l.l.c.k.R R     $ o o o o o X X o o o X o o & j d p.p.e.m.8.8.0.R Q 7 :.*. .:.:. .| +.:.' +.X.",
"<.,.1.,.#.,. .| O.O.O.|  .0 g z.l.v.c.x.j.R E X o o o o o o O o O o # o o X o o r 4 g.t.e.t.e.9.e.Y E w 0 0 [  . .+.:.| +.} ,.} ",
"1.,.,.1.=.O.#.O.| O.O.%.%.u a z.k.x.l.y.i.Q T # o o o o O O o o $ o o o o o o o > : U 0.y.t.s.8.8.y.0.E 2 u  .#.#.O. . .#.:.O. .",
",.#.#.=.,.,.O.,.:.#.| u p K K j.l.x.z.5.! T E o o o o X O X O o $ o o O o o o O = : 7 J e.9.M.k.x.c.s.Q 2 8  .} :.+.| } | | #.,.",
"#.=.2.,.,.1.1.<.#.O.O.r p T Y 8.u.b.x.Q Q H K o O o o o O O O O O O o o o O o X * e w J 0.8.v.x.x.z.z.~ 2 7  .#.:.,.#.<.:.,.#.<.",
" .O.{ O.<.,.<.#.1.:.,.r u Y I e.r.t.e.E T h d O o o o o O o o O o o $ @ o o o o O O . U ~ x.l.k.x.x.h.6.2 8  .} #.#.<.1.#.#.<.1.",
"| | #.O.O.,.1.1.&.-.;.7 8 T I 8.8.e.t.Q E h g o $ o o % @ O o @ o o O o $ o X o % o . T ! N.c.c.b.z.z.~ 7 0 ,.1.<.#.>. .,.:.>.,.",
"O.:.O. . .#.:. .| 8 u T T z.x.x.x.e.e.! E g u o $ o O O o @ O @ o o o o o O $ o o o % g j 8.k.l.x.t.t.~ 8 0 0 0  .{ #.:.O. .O.#.",
"O.}  .}  .} } | #.8 0 Q Y f.x.z.l.7.^ T L g r o o o o O o o @ o @ o o o o o o O o % + a A q.q.8.t.w.t.^ u p 8 9 +... . . .} #.| ",
"O.O. .O.O. . .#. .u 0 Q ~ k.x.v.z.z.d.s.a.u g o o % o % o o o o # + o O o O $ % + o o u j q.t.8.r.t.t.i.~ ~ y u X. .#.O. .:. .| ",
"#.1.=.=.#.=.#.x l T T M.B.x.j.x.v.k.j.8.~ 8 8 % % @ O o o o o % o o o o o o O o o o % u h t.q.t.j.p.j.j.w.~ K ~ y y  .#.#. .} #.",
",.,.1.1.=.O.=.y 0 Y Y k.z.x.x.v.l.x.d.8.7.0 r + $ o $ @ o + @ O o o o . o % $ o o o & r a q.t.q.l.c.c.x.t.r.T I r r [ X.{ | +.| ",
"=.#.#.1.=.#.#.y 0 T T r.t.c.x.x.l.9.9.7.~ 0 8 o % O o o o + o O $ o # o O o o % % % * K Y Y L c.l.x.x.x.Q E P E 0 0  .X.O. .,.:.",
"<.<.#.2.=.<.#.t 0 Q E r.t.z.x.b.z.8.8.8.! g w + o $ # o o + O o O o % $ $ $ # # o o % K R E I l.l.c.n.x.Y T E E r 0  . .#.O.1.<.",
" .:.} #.#.O.| i r F G t.t.7.8.0.e.8.0.Y P g g % % % # % $ % @ o o O % o % % % % - e 9 E T R Q t.9.~ ~ E Y R G D 0 u #.&.,.O.&.#.",
" .O. . .#.O. .8 u G D w.t.0.7.7.7.0.7.Y P u p % % % % % o + + % @ o # + % o % + * q > E Y T E u.t.! Q R Y E k G u y 1.#.=.=.1.<.",
" . . . .O.+. .o. .q w C _ U B Y T E Y I I e e f r N N b n b m v v v m v b b v m c e q 0 < Y R R Q E W R 7 7 s q b b <.<.<.#.<.=.",
" .+.O.| ..} |  .#.q r Z V V V Y Y E Y I R e e r r N b / b N n b b M n m b b v b 6 q 9 u ; R Q R R Q E Q 0 r e w n m <.,.#.1.,.#.",
"+.:. .O.O.O.| O.O. .{ e e 9 7 e q q q q q n n / n | O.O.} :.'  .+. .|  .#.O. . . .( z e r e e r w q w e 7 7 #.#.=.,.,.#.#.O.:. .",
"O.O.O. .' O.O. . . .| g r s e r w r q 9 e _ ) _ ) #.| O.#. .}  .O.O.O.O. . .#.:.` ) 5 r e e u e 7 e 4 9 e q :.#.#.<.,.1.,.#.| } ",
",.1.,.:.:.} } #.O. .| | '  .#.O.| O.O.O.|  .O.O.}  .|  . .O.#.#.O.#.:.,.,.#.:.<.,.#. . .{  .#.O.| { } {  . .|  .| |  . .| O.|  .",
"<.#.,.#.:.| #.{ | O. . . .| O.| O.:.| | {  . .:.| O. .O.{  .} #.#.#.,.<.=.,.<.1.#.$. .#.#. . .} :.#. . .| O. .O. .:.|  .| O.O.O.",
",.<.<.2.:.#.1.=.1.,. .O.#.{ #.| O.O.| :.O. .O.O.>. .O.| O.#. . .O.| O.' #. .:.| O.+.O.|  .| #.|  . .O.O.| O.| }  .| |  .+.O. .} ",
"#.<.<.,.#.#.#.=.<.<.| <.#. .O. .+.O.O.|  .O.| ' #. .O.{ | }  . . .| O.O.| .. . .,.| O. . .O.O. . .#.#.#.#.| :.| | O.:.|  . .:.| ",
"O.| O.O.#.O.=.#.,.:.#.,.2.&.:. .:.| O.| O.+.O.O. . . .#.O.}  . .| | O.| } |  .+.|  .:.O. . .O.#.1.,.#.,.<.#.,.#.:.O.,.}  .+. . .",
"O.:. . .{ { ,.<.1.1.#.,.1.:.:.#.| O.O.#. . .O.O.#. ...O.#.{ :.}  .{ O.{ #. . .O. .O.#.O.O.O.O.#.<.>.#.,.,.<.1.=.1.<.,.}  .| O. .",
" . .:.|  .} >. .O.O. .1.1.#.,.,.<.1.1.#.<.=.,.#.,.:.O. . . .#.{  . .#.|  .O. . .1.<.1.,.1.1.1.&.<.<.<.,.,.#.<.1.,.1.#.#.=.#.#.=.",
"..O.:.O.#.O.O.+.| '  .,.<.:.=.1.,.,.#.=.1.#.=.=.:.:.}  . . .| #.O.#. .#.#. .| #.<.#.1.#.=.,.1.#.=.,.=.#.#.<.#.#.<.,.#.:.1.<.=.,.",
"O.+.#.|  . .| | }  . . . .| } :. .:.+. .O.} O.O. .|  . .:. . .| O.1.1.#.,.#.=.<.<.#.1.,.<.,.1.&.,. .#.#.#. .+.:.:.| O.,.1.,.<.#.",
"O.O.O.O. .} #.O. . .+. .O.| #.+.O. . . .| } O.} } :. ...+.:.O.O. .,.>.,.<.#.=.#.1.1.<.#.,.,.1.1.#. .{ #. . .+.| | | :.<.1.#.#.,.",
"<.1.:.#.<.<.O.O.+.| |  .O.O.O. . .}  .| X.{ O. ...| #.O.O.&.,.#.:.:.,.1.=.1.&.1.#.,.#.:.O.O.| O.| | O.O.}  .:. . .#.| #. . .|  .",
"<.1.<.1.<.1.O.' | O.+.,.| } O.+. .:.#.:. . .| +. .O.| } | :.#.#.&.<.,.<.1.1.:.:.,.=.=.O.O.O.| | { #.} O.:.O. .+.O.O.} | | #.X.| ",
"<.,.<.#.<.,.2.<.<.1.<.1.=.O.O.O. . . .:.#.| } :. . .O. .O.O. .O.} }  . .O.O.O.O. .} :.|  .O.O. .O.O. .O.O.O.| O... .O. . . .}  .",
"&.#.=.<.<.<.,.<.:.1.1.<.:.O.O.|  . .+. . .+.| +.+. . .| | O.O.} O.O.+.#.+.| O.|  . .O. .O.+.O. .| O.{ |  .+.O.#.O. . .} X. .X.#."
};
