/* XPM */
static char *_bda0d8808534e92ba7dee5152d639e7xAqxR7Z2AwyZBL5h[] = {
/* columns rows colors chars-per-pixel */
"64 64 144 2 ",
"   c #037D7E",
".  c #01827C",
"X  c #7B7BB1",
"o  c #8477B3",
"O  c #8E6FC1",
"+  c #8F72C1",
"@  c #9375C3",
"#  c #9877C4",
"$  c #9679C6",
"%  c #997AC7",
"&  c #9779C9",
"*  c #9C7DCA",
"=  c #A07FCA",
"-  c #058483",
";  c #0A8585",
":  c #078887",
">  c #0B8986",
",  c #068588",
"<  c #0B8689",
"1  c #078C8A",
"2  c #0D8C8B",
"3  c #11878B",
"4  c #118D8D",
"5  c #0D918E",
"6  c #11918E",
"7  c #0D8F90",
"8  c #128E90",
"9  c #0E9291",
"0  c #139493",
"q  c #199595",
"w  c #159996",
"e  c #199997",
"r  c #159798",
"t  c #1A9698",
"y  c #169B9A",
"u  c #1A9D9B",
"i  c #219E9E",
"p  c #16A19D",
"a  c #1BA19E",
"s  c #20A09F",
"d  c #1D9EA0",
"f  c #1DA4A2",
"g  c #1EA9A5",
"h  c #1FABA9",
"j  c #1FB1AA",
"k  c #21A5A4",
"l  c #22AAA6",
"z  c #20A7A8",
"x  c #23ADAA",
"c  c #29AEAC",
"v  c #25B2AD",
"b  c #29B3AE",
"n  c #26B8AD",
"m  c #26B5B1",
"M  c #2AB5B2",
"N  c #26B9B2",
"B  c #2CBBB4",
"V  c #2EBEB9",
"C  c #30B4B4",
"Z  c #31BDB6",
"A  c #31BEB9",
"S  c #7D9BBF",
"D  c #2DC0B7",
"F  c #2EC1BA",
"G  c #31C0B6",
"H  c #33C2BC",
"J  c #32C5BD",
"K  c #35C5BD",
"L  c #36C6BE",
"P  c #3AC3BE",
"I  c #39C6BF",
"U  c #32C9BE",
"Y  c #37C8BF",
"T  c #39C9BF",
"R  c #3CC9BF",
"E  c #7C9DC2",
"W  c #37C3C0",
"Q  c #34C5C0",
"!  c #35C7C0",
"~  c #3AC6C1",
"^  c #3DC6C2",
"/  c #35C9C2",
"(  c #36CAC4",
")  c #38C9C4",
"_  c #3ACAC4",
"`  c #39CCC4",
"'  c #3CCCC7",
"]  c #3DCFC9",
"[  c #3FD2CB",
"{  c #40CAC6",
"}  c #41CDC6",
"|  c #45CEC6",
" . c #44CFC8",
".. c #46D0C6",
"X. c #40D3CB",
"o. c #44D3CC",
"O. c #9E81CC",
"+. c #8399C3",
"@. c #959DCA",
"#. c #989FCC",
"$. c #9F86D0",
"%. c #A081CE",
"&. c #A18AD2",
"*. c #BB9DDE",
"=. c #92A2CD",
"-. c #9CA2D0",
";. c #A1A0D1",
":. c #BBA0DF",
">. c #BE9FE0",
",. c #BEA3E2",
"<. c #CF9DCA",
"1. c #D49CCD",
"2. c #D89DCD",
"3. c #D79ED0",
"4. c #D4A2CD",
"5. c #D6A2D0",
"6. c #DDA6D4",
"7. c #DEA9D5",
"8. c #E0A6D5",
"9. c #E1AAD6",
"0. c #E2AFD9",
"q. c #E5B3DA",
"w. c #E8B4DC",
"e. c #EABBDE",
"r. c #C1A5E4",
"t. c #C5AAE6",
"y. c #C6ACE8",
"u. c #C9AEE9",
"i. c #CAB0EA",
"p. c #ECBDE0",
"a. c #ECC2DF",
"s. c #EFC4E2",
"d. c #F1C5E2",
"f. c #F4CCE5",
"g. c #F5CDE8",
"h. c #F6D1E7",
"j. c #F8D2E7",
"k. c #F6D3E9",
"l. c #F9D5E9",
"z. c #FDDDEC",
"x. c #FEE2ED",
"c. c #FEE8EF",
"v. c #FFE6F0",
"b. c #FDE9F0",
/* pixels */
"_ H H H H H J B V H D H B J _ J Q J J J D V P K  .^ B _ V B ` o.` B V / ` H / J V V H ` J ] _ B V m V V K Z H / B _ B V H B B N ",
"D V H B H ( ] v n J D V [ ( B Q Q ` _ / H A ~ W ^ | B F V v Q / J K ` J F V ` V / J Q / / B J _ V H B H N V K K N H m H h Q v Q ",
"n n H Z Z K H H ` o.B H Q J V / J H | J K K B K H ~ ..R o.H x K V Q H B V U / H H n J K ] N B B H V V H V Z Q T V H H H m H _ g ",
"B B H H V V J H _ V H J _ _ J ` J I ^ ( D H m K B H H ^ { J X.B H Y ` Q V Q Y ` ` D / J _ / K J J D H D H G H B / v H H F D B V ",
"v n H B B B D H B H Q ` V / U / [ { P K Q V D F B H K } H Q H Y D ' ' Y H B D J ` [ / H H H J _ B H D B Q K B H A n V D Q B D Q ",
"H n N H H m K D Q N Q Q F J J _ D D _ V V V / D B H Q ] D D Q _ H K D _ _ K J _ _ H A B K V D B ^ H B H V H F K N n K B J B B n ",
"A B A v H m B D K H _ H D D D N _ F ` J / B _ Y 7.6.9.8.6.8.7.8.7.9.7.9.7.7.7.6._ [ / ] D V H m H ^ Q H ` Q H V v v v N D n N B ",
"B B B H B Z N V V K B K H B J A K A Q ` / 6.6.6.k.j.z.z.z.z.z.z.z.z.z.z.f.j.k.j.7.6.6.' H B H H Q D H D K B N v N H V K H B n A ",
"n N B A v m B B n B B F H W n v F V v D V 6.6.8.f.h.z.z.z.z.z.z.z.z.l.l.f.g.j.g.6.6.6.K D N V h V ' _ V _ v H b H m x B b H l l ",
"H H V ' V N ] A ^ H H Q V V ' H K ~ _ 6.6.k.k.z.c.x.x.x.z.z.x.x.z.z.z.z.z.z.z.z.f.g.s.6.6.K ' _ H _ V Q Q V A H H ' Z v C Z B B ",
"m v B m v V J B m Q B _ V J m H D K Q 6.6.k.j.x.b.x.x.x.z.z.z.z.z.z.z.z.z.z.z.z.g.f.s.6.6.m H H B m H B b B b v V g B n B l b N ",
"Z B v B H V A H B D K m _ H V m ~ 5.6.g.j.x.z.b.c.c.c.v.x.x.x.z.z.x.z.z.z.z.z.z.z.z.g.s.s.6.6.V B n B b V m j V v A B v V x v Z ",
"V B A x B A g V V B n D B ^ n I n 6.6.g.k.z.x.c.x.x.x.x.x.x.z.z.z.z.z.z.z.z.z.z.z.z.j.s.d.6.6.B n V B B N H V g B B B m N v B m ",
"A N v b B A B B m v J J K ~ m v A 6.8.x.x.c.c.c.z.z.z.x.z.z.z.z.z.z.z.x.z.z.z.z.z.z.z.g.g.7.6.V V H H B B H v m N l N x x M p W ",
"N l g K H B A H n v N v _ V B B 6.d.f.z.x.b.c.z.z.z.z.z.z.z.z.z.z.z.z.z.z.z.z.z.z.z.z.j.j.a.s.6.4.A B v A x W B N B x N N m m x ",
"v h H N B v B N B m K V B B x B 7.f.g.z.z.v.x.x.z.z.x.z.z.z.z.z.x.z.z.z.z.z.z.z.z.z.z.j.k.d.s.9.4.B v g x B x m v m H g v v m x ",
"l A N B H v H B b B H A B v B n 7.h.l.z.z.z.z.z.z.z.z.z.z.z.z.z.z.z.z.z.z.z.z.z.z.z.z.l.z.g.g.9.4.B A N v x n b B V C A x h l f ",
"n g x x N N H b m v V B B A g V 7.k.l.z.z.z.z.z.z.z.z.z.x.x.z.z.z.z.z.z.z.z.z.z.z.z.z.l.z.g.g.7.4.v g B v B A x x l m x h x x l ",
"N A x v x g N B x B V N m B K m 7.j.l.z.z.z.z.z.z.z.z.z.z.z.z.z.z.z.z.z.z.z.z.z.z.z.z.l.z.g.g.7.4.B A Z N B f b v x b b x N v y ",
"B l B g M x v x V x v v v x B g 7.k.l.z.z.z.z.z.z.z.z.z.z.z.z.z.z.z.z.x.z.z.z.z.z.z.l.l.l.g.g.9.4.x f v A x N g H x f l f x x f ",
"C v H v x N H B n V n g l V B b 7.h.l.z.z.z.z.z.z.z.z.z.z.z.z.z.z.z.z.z.z.z.z.z.l.l.l.l.l.f.g.7.4.N B x v v x v M l x x M B g f ",
"h v h v _ N m V b v m n N A N m 8.f.f.l.h.z.z.z.z.z.z.l.z.z.z.z.z.z.l.z.l.l.l.l.l.l.l.g.f.p.p.7.4.g x g m v B g x n B v B N u l ",
"a k g v N a x A h B v g x v g v 6.s.f.k.h.z.z.l.z.z.z.l.l.z.l.l.l.z.l.l.l.l.l.l.l.l.l.f.f.e.e.7.5.x x v N l M v x x x x N v y f ",
"x x N y x l v x x N M x A A N H 4.s.f.j.j.l.l.l.l.l.l.l.l.l.l.l.l.l.l.l.l.l.l.l.l.l.g.f.f.e.e.9.4.v M p x l x f g x g l l k f a ",
"B l A a f M A B v l v f n f x M 2.s.d.j.j.j.l.l.l.l.l.l.l.l.l.l.l.l.l.l.l.j.l.l.l.l.f.f.d.e.e.6.<.f f f x y b x l x f M x v x l ",
"x l v x b x h B h g N v g x N v 2.e.p.f.f.g.g.l.l.l.l.l.j.l.l.l.l.l.l.j.l.k.l.l.g.g.f.p.e.w.q.2.1.x x l c f x a a B b x v f f a ",
"x f v f m N x l c M m m g x N b 1.q.e.s.s.d.f.g.g.f.f.f.d.f.f.f.f.f.f.f.f.f.f.f.d.a.s.e.e.q.0.1.1.x x C M x k f u f f f g x f w ",
"f a y l m a y f x k y M f g N m 1.q.q.e.e.d.d.d.s.s.d.s.s.s.s.s.s.d.s.s.d.d.s.d.e.e.e.e.e.0.0.3.<.l f f f g f x x x l b w f f a ",
"l w k f x m x x g g B H N l l B x 2.3.6.6.7.7.7.7.7.7.7.7.7.7.7.7.6.7.7.7.7.7.7.7.7.7.6.6.1.2.x v A x f m b f f l x h f x l u a ",
"x x m x g l l x a N f x x f x x l 1.5.6.6.6.6.6.6.6.7.6.6.6.6.6.7.6.7.6.6.6.6.7.7.6.6.6.5.1.1.v x B p M v a p a l u u y p a x a ",
"l f v x w x g v g x c y x y a f k x x N l % @ *.y M g b % @ *.x g v g % f f b g *.*.% N x b a f v x b y x b x c l f f x M 0 b l ",
"f l l f a M l g N v x f f y x x f b M g a % @ *.x g v f $ O *.x v l v $ f f x f *.*.% l x l a l M a g f x x y a f x b u x 0 c w ",
"x a f b a u l v g x f x l x x g u a f x c O.& r.l g x v % + ,.x v g g O.h a x f r.>.$ l x f v f p M f f w x g x l x a u z k f a ",
"x f u l x b w N x M x x M f g g x v k b x O.% r.g l f f %.$ r.l M c b O.x l x Z ,.r.%.y M x b a c c l f k l x k C b f w u w 0 u ",
"w a M l b b b f y f f f f m x p a x f g x O.$ ,.b x l x %.@ r.l x x f %.l x p a ,.r.O.u x p g a x a x b x a f l f f u f f f 0 u ",
"a l y a m k f u f a a u f a a l f l a l f %.& r.x x g f %.@ ,.x a a M O.u u f x r.r.O.x a f a p l a f v f y p 0 u u u x 0 0 u x ",
"w w f k f l c f f g l u w l a w f a f a f O.& r.b a f M %.@ r.l x g M O.b f 0 f ,.,.O.a w V v l g y l w f k y u f u f 0 a 4 u f ",
"f l f a u g x f a y l l l x l f f g a f f O.% r.x f k g O.$ u.m x u a O.a l l f r.r.O.x a x v k f f x f a f u f y 9 f f f k f f ",
"d w a 0 w 0 9 f f 0 f l a w x p w u w x f * &.E f a f k O.@ u.x v a w O.v p f l y.u.%.x l g f a a p f a u y y w k c a u y 0 a u ",
"a a w f f a u l f k y w a w f l f k w O.O.t.t.y f m y N %.@ u.f x f y O.x g f x y.y.O.a f a a 9 9 a l c f w w f y u u u y f 0 0 ",
"w k w a r a w k k u f a v a 5 a x u u %.O.r.t.x b x l x O.@ u.M a y k u * %.k y f f t.%.%.f u k f w x y a w 9 a y w u a f 9 2 f ",
"u u k x y 0 u k f k a a u a a k u x 0 O.* r.y.f f f l l O.@ y.f w u y w % O.x u u y t.O.O.y y 0 r a f u f f u w y f 0 l 5 0 u w ",
"0 9 u x a y w x f x a u l k f u u * O.*.*.p y y f a %.O.r.#.a f f f f f @ O.a l v k r.O.O.a u l w w w 0 u u 5 a w f a f u 0 u 0 ",
"a r 7 f u u 9 w a k a a u 9 f f a * O.*.:.l w a w d O.O.r.@.a u a u l k @ * u a u 5 r.O.O.y f u w y k f w w u u w 9 0 5 a 9 f w ",
"w k 0 y f a 0 f w u a x f 0 y k k * O.r.,.u x u f a O.O.r.=.c u f p x a @ %.f k f l l r.,.O.O.f 0 u w y y w u 0 w f 0 0 u 2 0 0 ",
"w w 9 w k w 0 5 u a w 6 u y 0 w u * O.r.r.w y k w w O.O.u.@.w u u 0 w f $ O.f u u 0 w i.u.O.O.p a w r 0 0 u ; w w w a 2 0 0 u 0 ",
"w w w w u d u y u w u w k w u y y O.O.r.,.0 a l k u O.%.i.@.f w r w u w $ O.5 u u u r u.y.O.O.f u w u w 7 0 u 0 u w w w 0 > w 6 ",
"w u u 0 u 9 0 0 w 9 u s 9 y w u w a a O.O.t.+.f w a O.* u.-.w 0 w a y O.u w w w u 0 w u.y.O.%.a 0 a w f w u w 0 u u w u 6 u e 6 ",
"a u 0 u u u 5 0 u 9 0 w w 2 7 u 0 w 0 = O.r.S w 1 0 O.O.i.;.> w x u w O.u u w w l 5 w u.y.O.O.a 0 0 u e 6 0 0 2 w 0 2 > 0 2 u w ",
"u w w 0 5 r w u 0 6 0 c w a w a w u a O.O.r.E x f x u u %.% u.0 0 a w O.w w f x w 0 0 u.u.O.O.w 0 0 2 0 w 0 0 0 2 0 6 e u 0 0 2 ",
"6 a 0 w a 5 0 u w w 2 0 ; 5 e w 9 u w O.O.t.E u 6 w 0 y %.% i.y w u w O.u u 0 u w 0 w u.t.$.O.u 0 2 5 2 e 9 > 6 2 0 w 4 2 w 4 2 ",
"w ; u 0 u w w 2 0 w 0 0 e 0 w 9 e f 0 O.O.r.+.l 0 u w u O.$ u.w u 5 a O.u u u u 6 w u.O.O.0 2 > e u 5 0 4 w 0 0 6 u 2 5 6 w 8 0 ",
"u w u k 5 5 a 9 f e 0 u u 2 u 2 w d 5 f u 6 w 0 u 6 u w O.# ,.r w 9 r 5 k y k 0 u f y.O.O.0 e 2 u 0 w w 9 0 w 6 0 0 0 0 e 0 6 ; ",
"2 2 0 5 ; ; 2 0 0 2 2 x a w u w u r 0 0 0 0 w 5 a 0 u 2 O.% ,.5 w 9 u u 0 u u w c 9 t.O.O.0 w 0 0 w u u u 9 u 2 2 0 0 > 2 6 u - ",
"q 2 4 4 u 0 0 2 2 8 2 u x 0 0 0 k 0 0 0 w u a f u 0 u f O.o 0 w 6 9 y 0 6 9 0 u w 0 ,.u 0 0 w 5 w u 2 w 0 5 w 0 4 - 0 - 4 0 6 2 ",
"e i 4 6 2 - w 6 w q 2 0 u 8 4 w 2 w 0 y 0 4 0 8 w 0 0 d O.X u 0 0 2 7 2 0 0 w w 0 a ,.0 t e 0 2 t 6 ; q 0 2 e 4 w 6 6 ; 4 2 4 ; ",
"4 4 u 6 0 ; u 0 0 w 2 w w > 0 0 0 w q > e 0 6 0 q u 9 6 0 5 u 2 0 6 u 9 5 w 0 6 i w f u u r u 2 6 w 0 2 q 2 0 0 6 t 2 > 2 ; < > ",
"< > 0 ; 2 4 4 4 ; - > 2 4 ; 2 4 6 5 , > 0 > 5 > 2 0 ; 4 2 2 > 0 2 0 > 2 0 > < w 2 ; 6 . ; 4 6 - : 6 ; : < 2 - ; < 2 - < 3 ; ; > ",
"q q 0 > 4 q 0 4 ; 6 0 2 6 2 3 u 0 u u 2 w < w 0 0 5 0 8 u q w 2 t a u 2 w 6 9 r w 2 w w 0 0 q 2 0 4 y q w 2 w q u ; 0 2 0 6 4 < ",
"q 4 0 3 2 < u 0 6 0 w 0 w 2 u t w 2 0 0 2 - 2 4 4 w w q i w 0 0 4 0 u u 0 0 0 2 w w 0 0 0 0 0 0 2 6 2 w 9 4 w 2 ; 2 u 6 6 2 - 0 ",
"8 8 < 2 4 q 0 4 0 2 < 4 4 0 0 0 0 > 0 2 0 - u w 0 2 q q 0 2 0 2 0 3 4 w 2 q 2 t 0 0 < 0 0 w 2 0 < > 8 0 < 4 q 2 > e 2 0 2 2 ; ; ",
"8 8 2 q 2 2 2   < 0 4 u 2   w u 6 u q u 0 3 9 i 2 0 2 ; 2 2 2 - 2 0 0 8 u 0 4 4 4 2 0 0 w 6 > 2 - 0 ; 0 u 2 q 0 0 0 - - > 0 6 ; ",
"8 4 4 ; 4 0 t 2 4 0 0 0 2 > 6 8 2 4 2 q 0 2 ; 0 4 2 2 0 0 0 4 q ; - 0 w w 2 6 w 6 < u < 2 0 w 8 2 8 3 8 0 6 2 0 0 2 4 2 4 0 ; 3 ",
"3 ; > 4 0 0 4 8 ; 0 q 4 4 < 4 2 ; 8 0 4 4 0 < q 8 4 2 < 8 q 8 4 0 8 0 u t 4 4 2 2 0 0 2 0 q 0 0 ; 4 - 2 < 8 2 q 2 4 4 < 5 2 0 0 "
};
