/* XPM */
static char *dd65036c3c114e93ebb9e82a391c3fa2Sdfio9gJXal7ZMHj[] = {
/* columns rows colors chars-per-pixel */
"64 64 196 2 ",
"   c #172A28",
".  c #1D2E2C",
"X  c #1E302F",
"o  c #1D3332",
"O  c #1D3937",
"+  c #1C3C3B",
"@  c #20312F",
"#  c #223332",
"$  c #283836",
"%  c #243B39",
"&  c #2C3B39",
"*  c #303F3E",
"=  c #19403F",
"-  c #22413F",
";  c #31413F",
":  c #1B4443",
">  c #154847",
",  c #1D4846",
"<  c #1B4D4C",
"1  c #1D5453",
"2  c #1B5957",
"3  c #145C5C",
"4  c #1D5C59",
"5  c #274645",
"6  c #224D4B",
"7  c #364442",
"8  c #394644",
"9  c #374B49",
"0  c #3D4B49",
"q  c #22504E",
"w  c #215654",
"e  c #2C5755",
"r  c #245956",
"t  c #225D5A",
"y  c #3B5654",
"u  c #18605F",
"i  c #24615E",
"p  c #196765",
"a  c #156D6C",
"s  c #18716F",
"d  c #1A6F70",
"f  c #077D7D",
"g  c #137272",
"h  c #1B7372",
"j  c #1C7977",
"k  c #127E7E",
"l  c #1C7B79",
"z  c #236865",
"x  c #376C6A",
"c  c #247875",
"v  c #424E4C",
"b  c #45514F",
"n  c #455755",
"m  c #4A5653",
"M  c #4D5957",
"N  c #4D5A58",
"B  c #525D5A",
"V  c #40605E",
"C  c #57615E",
"Z  c #486A67",
"A  c #5A6563",
"S  c #5A6663",
"D  c #567B78",
"F  c #626B67",
"G  c #646D69",
"H  c #68706C",
"J  c #6B7875",
"K  c #747C78",
"L  c #01827C",
"P  c #18817E",
"I  c #22817F",
"U  c #7B827E",
"Y  c #058483",
"T  c #068787",
"R  c #0A8585",
"E  c #0B8986",
"W  c #0B8689",
"Q  c #0D8C8B",
"!  c #138282",
"~  c #178585",
"^  c #118D8D",
"/  c #1B8D8A",
"(  c #0E918E",
")  c #11918E",
"_  c #1D908F",
"`  c #0C8F90",
"'  c #138E90",
"]  c #0F9191",
"[  c #139393",
"{  c #1A9594",
"}  c #159996",
"|  c #199997",
" . c #159698",
".. c #1A9698",
"X. c #169B99",
"o. c #1A9C9B",
"O. c #238381",
"+. c #268C88",
"@. c #24928D",
"#. c #299893",
"$. c #229F9D",
"%. c #17A19B",
"&. c #1BA19E",
"*. c #23A29D",
"=. c #38A29B",
"-. c #1D9EA0",
";. c #1DA4A2",
":. c #1EAAA5",
">. c #1FACA9",
",. c #1FB1AA",
"<. c #22A5A3",
"1. c #21ABA6",
"2. c #2CA9A5",
"3. c #23ADAA",
"4. c #2BADAA",
"5. c #25B3AD",
"6. c #29B4AE",
"7. c #28B8AE",
"8. c #26B5B1",
"9. c #2AB6B2",
"0. c #27B9B2",
"q. c #2CBBB5",
"w. c #2EBEB9",
"e. c #31BDB6",
"r. c #31BEB9",
"t. c #6C8A85",
"y. c #7E8581",
"u. c #7B8A87",
"i. c #2EC0B7",
"p. c #2EC1BA",
"a. c #35C5BB",
"s. c #33C3BC",
"d. c #39C4BE",
"f. c #35C8BE",
"g. c #35C5C1",
"h. c #3AC6C1",
"j. c #36C9C2",
"k. c #39C9C2",
"l. c #3ACAC4",
"z. c #3ACCC5",
"x. c #3DCEC9",
"c. c #3FD1CA",
"v. c #43CDC7",
"b. c #43D4CB",
"n. c #858C88",
"m. c #8A928E",
"M. c #8C9593",
"N. c #8E9998",
"B. c #959993",
"V. c #9A9E99",
"C. c #9CA29D",
"Z. c #A0A49E",
"A. c #99A3A1",
"S. c #A6ABA4",
"D. c #A4ABA6",
"F. c #A9ACA6",
"G. c #ADB1AB",
"H. c #B1B5AE",
"J. c #ACB5B3",
"K. c #B6B9B3",
"L. c #BABDB5",
"P. c #B3BCBB",
"I. c #BDC1BB",
"U. c #C3C4BD",
"Y. c #BCC4C1",
"T. c #BFC8C4",
"R. c #C2C9C4",
"E. c #C4CBC7",
"W. c #CBCDC5",
"Q. c #C6CECC",
"!. c #C7D0CE",
"~. c #C9D1CF",
"^. c #D6D6CD",
"/. c #D7D8CE",
"(. c #D8D9CF",
"). c #CCD4D1",
"_. c #D1D7D3",
"`. c #D4D9D4",
"'. c #DBDCD3",
"]. c #DADED8",
"[. c #DEE1DA",
"{. c #E1E0D7",
"}. c #E3E5DD",
"|. c #E8E7DE",
" X c #E5E7E0",
".X c #E6E8E0",
"XX c #ECECE3",
"oX c #EDEEEA",
"OX c #F0EFE6",
"+X c #EFF2EF",
"@X c #F1F0E7",
"#X c #F5F4EA",
"$X c #F8F7EC",
"%X c #FBF9EE",
"&X c #F7F8F3",
"*X c #FBFDF9",
/* pixels */
"l.s.s.s.s.s.s.q.w.s.i.s.q.s.l.s.g.s.s.s.s.q.d.d.v.h.q.d.q.6.l.v.h.q.w.j.z.s.j.s.w.w.s.z.s.x.k.q.w.8.w.w.d.e.s.j.q.k.q.w.s.q.q.9.",
"i.w.s.q.s.j.x.5.7.s.i.w.c.j.q.g.g.z.z.j.s.r.h.g.h.v.*.t w w r r r r =.s.p.w.z.w.j.s.g.j.j.0.s.l.w.s.q.s.9.w.d.d.0.s.8.s.>.g.5.g.",
"7.7.s.e.e.a.s.s.z.b.q.s.g.s.w.j.s.s.v.s.d.d.q.s.e.s.=.$ $ $ $ $ $ # +.7.q.f.j.s.s.7.s.d.x.0.q.q.s.w.w.s.w.e.g.f.w.s.s.s.8.s.k.:.",
"q.q.s.s.w.w.s.s.k.w.s.s.l.l.s.z.s.d.h.j.i.s.8.e.t 6 Z L.U.U.U.U.U.L.Z 6 z s.f.z.z.i.j.s.k.j.d.s.s.i.s.i.s.i.s.q.j.5.s.s.p.i.q.w.",
"5.7.s.q.q.q.i.s.q.s.g.z.w.j.f.j.c.v.h.d.g.w.i.9.: . M XX$X$X$X$X$XXXN . < 6.i.s.z.c.j.s.s.s.s.j.q.s.i.q.g.d.q.s.r.7.w.i.g.q.i.g.",
"s.7.9.s.s.8.a.i.g.9.g.g.p.s.s.l.i.i.k.w.w.w.j.6.: . m |.#X#X#X#X#XXXM . w s.s.l.k.s.r.q.d.w.i.q.l.s.q.i.w.s.p.d.0.7.s.q.s.q.9.7.",
"r.q.r.5.s.8.q.i.d.s.k.s.i.i.i.0.k.p.z.s.j.6.a.e.6 # B |.#X#X#X#X#XXXC # r q.9.q.k.c.j.x.i.w.s.8.s.h.g.i.z.g.s.w.5.5.5.9.i.7.9.q.",
"q.q.q.s.q.r.0.w.w.d.q.d.s.q.s.r.d.r.g.z.j.c q e D.U.W.@X#X#X#XXX{.'.L.G.u.6 < =.q.q.s.l.s.q.s.s.g.i.s.i.d.q.9.5.9.s.w.d.s.q.7.r.",
"7.9.q.r.5.8.q.q.7.q.q.p.s.g.7.5.p.w.5.i.w.4 X & W.%X#X#X#X#X#XXX(./.(.'.B.X X #.j.q.s.d.i.9.w.>.w.z.k.w.l.5.s.6.s.8.3.q.6.s.1.1.",
"s.s.w.l.w.9.x.r.l.s.s.g.q.w.l.d.d.h.k.d.w.4 X & W.#X#X#X#X#X#XXX(.(./.'.B.o o #.d.e.d.l.i.d.l.l.s.l.q.g.g.w.r.s.s.l.e.5.e.e.q.q.",
"8.5.q.8.5.w.s.q.8.g.q.k.w.s.8.s.i.d.g.w.w.t X & W.#X#X#X#X@X@XXX(.(.(.'.B.o o +.i.w.w.i.w.8.s.s.q.8.s.q.6.q.6.5.w.:.q.7.9.1.6.9.",
"e.q.5.q.s.w.r.s.q.i.d.8.l.s.w.8.h.q.w.s.8.4 X & W.#X#X#X#X{.'.'.(.(.(.'.B.o o #.l.5.w.g.7.8.s.w.q.7.q.6.w.8.,.w.5.r.q.5.q.3.5.e.",
"w.q.r.3.q.s.:.q.w.q.5.i.q.h.7.d.7.s.p.s.q.i X & W.#X#X#X@X{.'.'.'.'.(.'.B.X o #.w.f.5.q.7.l.a.q.7.w.q.q.0.s.w.:.q.q.q.9.9.5.q.8.",
"r.9.5.6.q.s.q.q.8.5.s.s.d.h.8.5.r.0.s.s.s.4 X & W.#X#X#X#X{.'.'.'.'.(.'.B.X o ~ 9.s.q.k.5.7.r.w.w.s.s.q.q.s.5.8.9.1.9.3.3.q.%.h.",
"9.1.:.d.s.q.r.s.7.5.0.5.k.w.q.q.r.q.q.d.w.4 X & W.#X@X|.|.'.'.'.'.(.(.'.B.X o @.q.r.w.f.q.d.b.h.w.r.q.5.r.3.h.q.9.q.3.9.9.9.8.5.",
"5.>.s.9.q.5.q.9.q.8.a.w.q.q.3.q.q.g.9.8.s.4 X & W.#X|.'.(.(.(.(.(.(./.'.B.X o @.d.5.e.q.q.l.d.s.w.q.5.:.3.q.3.8.5.8.s.:.5.5.8.3.",
"1.r.9.q.s.5.s.q.6.q.s.r.q.5.q.7.>.1.p t i 5 X # A H H G G F G G F F F G m o o 6 t r w @.r.h.g.d.s.q.r.9.5.3.7.6.q.w.e.r.3.>.1.;.",
"7.:.5.3.9.9.s.6.8.5.w.q.q.r.:.w.>.2.- @ # # @ @ . . . . . . . . . . . . X # @ @ @ # . I 3.8.5.r.5.5.:.q.5.q.r.3.3.1.8.3.>.3.3.1.",
"9.r.>.5.3.:.9.q.3.q.w.9.O.4 i 4 t x C.F.F.F.F.F.F.F.F.F.F.F.F.F.F.F.F.D.F.D.F.F.F.F.D.D t i t t p 4.r.e.9.q.;.6.5.3.6.6.3.9.5.X.",
"q.1.q.:.9.3.5.3.w.3.5.5.z X @ @ X 0 {.$X$X$X$X$X$X$X$X$X$X$X$X$X$X$X$X$X#X$X$X$X$X$X#XH   . X . O $.;.5.r.1.9.:.s.3.;.1.;.3.3.:.",
"e.5.s.5.3.9.s.q.5.#.t 4 t.F.F.F.F.H.XX#X#X#X#X#X#X#X#X#X#X#X#X#X#X#X#X#X#X#X#X#X#X#X#XL.V.V.m.n.u.z z z 2.3.3.5.9.1.3.3.9.q.:.;.",
">.5.>.5.l.9.8.q.6.c @ @ V.%X$X$X$X$X#X#X#X#X#X#X#X#X#X#X#X#X#X#X#X#X#X#X#X#X#X#X#X#X#X$X$X#X]._.Y.7 # % *.5.9.:.3.7.q.5.q.9.o.1.",
"&.<.:.5.9.&.*.z 4 D H.H./.#X#X#X#X#X#X#X#X#X#X#X#X#X#X#X#X#X#X#X#X#X#X#X#X#X#X#X#X#X#X#X#X#XXXXX{.D.A.M.e < c 5.3.3.3.3.9.5.X.-.",
"3.3.9.X.3.1.$.O . J $X$X#X@X#X#X#X#X#X#X#X#X#X#X#X#X#X#X#X#X#X#X#X#X#X#X#X#X#X#X#X#X#X#X#X#X#X#X@X].].L.& . 1 ;.:.3.:.1.1.<.:.&.",
"q.1.r.&.;.9.2.+ . J #X#X#X#X#X#X#X#X#X#X#X#X#X#X#X#X#X#X#X#X#X#X#X#X#X#X#X#X#X#X#X#X#X#X#X#X#X#X#X@X@XW.& . w 3.1.3.;.9.3.5.3.1.",
"3.1.5.3.4.<.{ 5 # K #X#X#X#X#X@X@X@X#X#X#X#X#X#X#X#X#X#X#X#X#X#X#X#X#X#X#X#X#X#X#X@X@X@X@X@X#X#X#X#X#X^.7 # 5 4 u z z O.5.:.;.&.",
"3.;.5.o.t , V I.U./.#X#X#X#XXXn.G U |.#X#X#X#X#X#X#X#X#X#X#X#X#X#X#X#X#X#X#X#X#XOXn.A A A y.XX#X#X#X#X|.H.G.J . X X . 4 :.3.;.X.",
";.&.X.*.6 . m XX$X#X#X#X#X#XXXb   8 '.#X#X#X#X#X#X#X#X#X#X#X#X#X#X#X#X#X#X#X#X#XXXm   .   b |.#X#X#X#XOX].].m.. X < 4 z s j { &.",
"1.} <.o., . m |.#X#X#X#X$X&XoXm . 0 '.#X#X#X#X#X#X#X#X#X#X#X#X#X#X#X#X#X#X#X#X#X@XG.M.8 . v |.#X#X#X#XOX`.].m.. o O.>.d . X j &.",
"3.3.9.2., . m |.#X#X#X#X&X*XoXm . 8 '.#X#X#X#X#X#X#X$X$X#X#X#X$X#X#X#X#X#X#X#X#X#X*X+XM . 0 {.#X#X#X#XXX'.].m.. o l o.a . o O.&.",
"1.:.5.<.: . m XX#X#X#X#X&X*XoXm . 8 '.#X#X#X#X#X#X|.'.'.'.'.'.'.'.'.OX#X#X#X#X#X#X*X+XM . 0 {.#X#X#X#XOX].].m.. X l ;.h . o I 1.",
":.1.1.o.: . m |.#X#X#X#X&X*XoXM # v '.#X#X#X#X@XXXy.8 8 8 8 8 8 8 m W.@X@X#X#X#X#X*X#XB # b {.#X#X#X#XXX].].m.. X O.6.a . X O.} ",
"3./ 2 t u.D.K.OX#X@X#X#X$X$X@XW.U.W.XX#X#X#X#XZ.C 7 . B m.m.m.y.& X M G /.#X#X#X#X$X@XW.I.R.OX#X#X#X#XOX].].m.. X I &.a . X j &.",
"3.~ X # L.%X$X#X#X@X#X#X#X@X#X$X$X$X#X#X#X#X$XU   . A '.$X$X$X$XG.*   $ W.#X#X#X#X#X#X$X$X$X#X#X#X#X#XXX].].m.. o +.;.a . o g o.",
"} ~ o # K.$X#X#X#X#X#X#X#X@X#X#X#X#X#X#X#X#X#XR.Z.D.'.$X#X#X#X#X#XI.V.D.{.#X#X#X#X#X#X#X#X#X#X#X#X#X#XXX].].m.. o l o.d . X s o.",
"&./ o # K.$X#X#X#X#X#X#X#X#X#X#X#X#X#X#X#X#X#X$X$X$X$X#X#X#X#X#X#X$X$X$X#X#X#X#X#X#X#X#X#X#X#X#X#X#X#XXX'.].m.. o l o.h . X h 3.",
"} P o # K.$X#X#X#X#X#X#X#X@X#X#X#X#X#X#X#X#X#X#X#X#X#X#X#X#X#X#X#X#X#X#X#X@X#X#X#X#X#X#X#X#X#X#X#X#X#XXX`.].m.. o j ;.p . X h ;.",
";.+.o # H.#X@X#X#X#X#X#X#X@X#X#X#X#X#X#X#X#X#X#X#X#X#X#X#X#X#X#X#X#X#X#X#X#X#X#X#X#X#X#X#X#X#X#X#X@X@XXX`.].m.. X g ;.s . X j ;.",
"-.^ j s Z G U |.#X#X#X#X#X@X#X#X#X#X#X#X#X#X#X#X#X#X#X#X#X#X#X#X#X#X#X#X#X#X#X#X#X#X#X#X#X#X#X#X@X`.`._.).`.m.. o O.&.a . X j | ",
"&.&.} ;.< . 7 '.#X#X#X#X#X#X#X#X#X#X#X#X#X#X#X#X#X#X#X#X#X#X#X#X#X#X#X#X#X#X#X#X#X#X#X#X#X#X#X#X@X_.).).).`.m.. o h { p o o g [ ",
"} <.X.o., X 7 '.%X$X#X#X#X#X#X#X#X#X#X#X#X#X#X#X#X#X#X#X#X#X#X#X#X#X#X#X#X#X#X#X#X#X#X#X#X#X#X#XOX_.).).).`.m.. X O + 2 / k W ;.",
"o.o.<.1.p < e C.G.U.#X#X#X#X#X#X#X#X#X#X#X#X#X#X#X#X#X#X#X#X#X#X#X#X#X#X#X#X#X#X#X#X#X#X#X@X].`.`.~.~.Q.N.n.A : , , : d ( [ o.[ ",
"[ ] o.3.o.X.~ O . H #X$X#X#X#X#X#X#X#X#X#X#X#X#X#X#X#X#X#X#X#X#X#X#X#X#X#X#X#X#X#X#X#X#X#X@X).~.~.~.).Y.8 . o / { &.o.;.| [ o.[ ",
"&. .` ;.o.o.W 2 1 Z F.F.~.|..X@X#X#X#X#X#X#X#X#X#X#X#X#X#X#X#X#X#X#X#X#X#X#X#X#X#XXX|. X|.}.).~.Q.P.P.J.9 O : / X.] { ( &.] ;.} ",
"} <.[ X.;.&.[ ;.X.h X X M.).).XX#X#X#X#X#X#X#X#X#X#X#X#X#X#X#X#X#X#X#X#X#X#X#X#X#X_.Q.Q.Q.Q.~.).J.0 ; 5 P / / [ [ ;.{ [ o.Q [ [ ",
"[ } ] [ <.[ } ( o.P , : J N.C.`.}.}.}.}.}.}.|.|.}.|. X X X X.X.XXXXXXXXXXX.XXXXX.X_.~.Q.Q.Q.J.J.N.- + = ! o.E } } } &.Q [ [ | [ ",
"[ } } X.o.-.o.X.o.[ | { 1 X * P.~.!.!.!.!.Q.Q.Q.Q.Q.Q.Q.Q.Q.Q.Q.Q.Q.Q.Q.Q.Q.Q.Q.Q.!.~.).).Y.0 $ 5 P _ / Q [ o.[ o.[ [ X.{ E [ ) ",
"[ | o.[ o.] } { } ] o.<.u , e M.A.A.A.A.D.E.Q.Q.Q.Q.Q.Q.Q.Q.Q.Q.Q.Q.Q.Q.Q.Q.Q.Q.P.A.A.A.A.N.9 + : { X.;.[ o.[ [ o.o.[ o.) o.| ) ",
"&.| { o.| | ( } o.] [ } } Q ! % # # # # 0 Y.).~.~.~.~.~.~.~.~.~.~.!.!.!.!.!.!.).M.# # # # % l { ^ [ | | ) [ } Q [ [ Q E [ Q o.[ ",
"o.[ X.[ (  .} | [ ) } 4.X.&.^ < : : : : 9 N.A.A.A.A.A.A.A.A.A.A.A.A.A.A.A.A.A.A.J : : : : : _ [ { } Q [ X.} [ [ Q [ ) | o.[ [ Q ",
") &.{ [ &.( ] o.X.[ Q [ E ( | ) Q { [ [ g # # # # # # @ @ @ @ @ @ @ # # # # # # , ^ [ Q E ^ X.o.[ Q ( Q | ] E ) Q [ [ ^ Q [ ^ Q ",
"X.E | [ o.[ } Q [ [ [ } | [ } ] | ;.[ [ k < , , o X 7 N M M M M N N N N 0 @ . : 3 } } <.o.[ Q E | | ( [ ^ [ [ [ ) | Q ( ) X.' [ ",
"| [ | <.( ( &.] ;.| [ o.o.Q o.Q [ -.( ;.o.^ } ! o . H Y.Y.I.Y.Y.Y.Y.Y.Y.M.# X a | ;.&.} } [ | Q o.[ X.[ ] [ [ ) [ [ [ [ | [ ) W ",
"Q Q [ ( W W Q [ [ Q Q 3.&.[ | } o. .[ } [ [ } k o . J ~.Q.Q.Q.E.R.T.T.R.M.# . a 4.] o.[ ] } } [ [ [ o.o.X.] o.Q Q { [ E Q ) | Y ",
"{ Q ^ ^ o.[ } Q Q ' Q o.3.[ [ [ <.[ [ [ } o.&./ o . y.@XOXOX@X[.R.R.T.R.M.# . h X.[ o.| [ { [ ( } | Q X.{ ( } [ ^ Y { Y ^ [ ) Q ",
"| $.^ ) Q Y } ) [ { Q { | ' ^ [ Q [ [ X.] ^ [ k o . y.$X#X#X#X}.R.R.T.R.M.# . a [ &.&.{ o.| [ Q ..) E { [ Q | ^ } ) ) E ^ Q ^ W ",
"^ ^ o.) ' W o.{ [ [ Q [ [ E [ { [ } { E | [ ) P o . y.$X#X#X#X}.E.R.R.R.M.# . p $.[ ;.o.|  .| Q ) [ [ Q { Q [ [ ) | Q E Q E W E ",
"W E [ R Q ^ ^ ^ W Y E Q ^ W Q ^ ) ( T E [ E ( Y p u Z K M.XX#XXX|.[.y.A n 3 3 ! Q W ) L W ^ ) Y T ) E T Q Q Y W W Q Y W ^ W W E ",
"{ { [ E ^ { { ^ E ) [ Q ) Q ^ o.[ | | Q [ W [ [ [ ( 2   m |.#X#X#XXXC . : ^ ]  .[ Q [ X.} { | Q [ ^ X.{ [ Q [ { | W [ Q ) ^ Q W ",
"{ ^ [ ^ Q W o.} ) [ [ [ [ Q | | [ Q [ [ Q Y Q Q ^ } 2 . m XX%X$X$X@XA . : ^ [ Q [ X.[ [ [ [ [ [ Q ) Q [ ] ^ [ Q E Q o.) ) Q Y [ ",
"' ' W Q ^ { [ ^ [ Q W ^ ^ [ [ [ [ E [ Q { Y o.X.[ Q p + y B.C.C.C.V.y + < { Q o.[ [ W { [ } Q [ W E ' [ W ^ { Q E | Q [ Q Q Y E ",
"' ' Q { Q Q Q f Q [ ^ | Q f [ o.) | { | { ^ ] $.Q { W f a X . . . . a W ..[ ^ ^ ^ Q [ { [ ) E Q Y [ W [ | Q { [ [ [ Y Y E { ) W ",
"' ^ ^ R ^ [ ..Q ^ { [ [ Q E ) ' Q ^ Q | [ Q W [ ^ Q Q [ ! < < < > > k [ [ Q ) [ ) W | W Q [ [ ' Q ' ^ ' [ ) Q [ [ Q ^ Q ^ [ W ^ ",
"W R W ^ [ [ ^ ' W [ { ^ ^ W Q Q R ' [ ^ ^ [ W { ' ^ Q W ' { ^ ^ ' ^ [ | | ^ ^ Q Q [ [ Q [ { [ [ W ^ Y Q W ' Q { Q ^ ^ W ( Q [ [ "
};
