/* XPM */
static char *_3a86b0a717941bf8478a7c30fb60c5duJrqHkqfBMYsJb4C[] = {
/* columns rows colors chars-per-pixel */
"64 64 189 2 ",
"   c #112C36",
".  c #13303A",
"X  c #1F3C46",
"o  c #203D47",
"O  c #223E49",
"+  c #25434D",
"@  c #29454F",
"#  c #2A4652",
"$  c #2D4B55",
"%  c #2E4D59",
"&  c #314C56",
"*  c #324E5A",
"=  c #35525D",
"-  c #39555F",
";  c #375661",
":  c #395661",
">  c #365861",
",  c #3C5A65",
"<  c #3D5B68",
"1  c #01676C",
"2  c #026E73",
"3  c #057276",
"4  c #0B7677",
"5  c #05757A",
"6  c #09757A",
"7  c #057A7C",
"8  c #0A7C7D",
"9  c #3F616A",
"0  c #415C66",
"q  c #425E69",
"w  c #426067",
"e  c #45626C",
"r  c #49636E",
"t  c #466471",
"y  c #4A6571",
"u  c #476870",
"i  c #4D6974",
"p  c #4F6C79",
"a  c #506774",
"s  c #516B76",
"d  c #536D7A",
"f  c #55727D",
"g  c #59727E",
"h  c #0C7D81",
"j  c #107F83",
"k  c #577380",
"l  c #5C7682",
"z  c #5E7985",
"x  c #5F7B88",
"c  c #607782",
"v  c #617B86",
"b  c #637D8A",
"n  c #687D8A",
"m  c #058484",
"M  c #0C8385",
"N  c #0A8A86",
"B  c #0E8689",
"V  c #048B8B",
"C  c #0C8B8B",
"Z  c #118486",
"A  c #128A87",
"S  c #138789",
"D  c #138B8C",
"F  c #188E8E",
"G  c #0D918E",
"H  c #12918F",
"J  c #148E91",
"K  c #0E9292",
"L  c #099795",
"P  c #0D9D9A",
"I  c #149493",
"U  c #1A9494",
"Y  c #159996",
"T  c #1B9996",
"R  c #169798",
"E  c #1A9798",
"W  c #169A9A",
"Q  c #1B9C9B",
"!  c #219496",
"~  c #219C9C",
"^  c #1DA19D",
"/  c #21A19E",
"(  c #1C9DA0",
")  c #239DA0",
"_  c #0CA7A5",
"`  c #1EA2A1",
"'  c #17ABA8",
"]  c #1CB2AD",
"[  c #1EB9B6",
"{  c #23A4A3",
"}  c #28A6A5",
"|  c #25A9A5",
" . c #28AAA7",
".. c #29AAA7",
"X. c #24A6A8",
"o. c #29A7A8",
"O. c #26AAA9",
"+. c #29ABA9",
"@. c #2AADAA",
"#. c #2BADAB",
"$. c #2DAFAD",
"%. c #32AFAD",
"&. c #23B3AE",
"*. c #2DB1AD",
"=. c #2CB1AE",
"-. c #31B2AE",
";. c #31B2AF",
":. c #2EB2B1",
">. c #2EB3B1",
",. c #22BAB4",
"<. c #25B8B4",
"1. c #33B5B3",
"2. c #34B6B5",
"3. c #34B8B5",
"4. c #39BAB6",
"5. c #36B8B8",
"6. c #3BBCBA",
"7. c #3ABDBA",
"8. c #66818C",
"9. c #6A828E",
"0. c #678591",
"q. c #6C8592",
"w. c #6E8994",
"e. c #728792",
"r. c #738A95",
"t. c #798B96",
"y. c #758D99",
"u. c #7A8E9A",
"i. c #76919D",
"p. c #7C929D",
"a. c #7792A1",
"s. c #7D95A1",
"d. c #7F99A3",
"f. c #27C2BB",
"g. c #3BC0BD",
"h. c #41C0BC",
"j. c #32C9C2",
"k. c #42C2C1",
"l. c #48C9C5",
"z. c #82949E",
"x. c #8296A2",
"c. c #849AA4",
"v. c #8A9CA6",
"b. c #859CA9",
"n. c #8B9EA9",
"m. c #8DA0A6",
"M. c #8DA2AC",
"N. c #92A4AE",
"B. c #93A9AF",
"V. c #8EA4B1",
"C. c #93A6B1",
"Z. c #98A7B2",
"A. c #95A9B3",
"S. c #9AACB5",
"D. c #97AEB9",
"F. c #9CAEB9",
"G. c #9DB0B7",
"H. c #9EB1BA",
"J. c #A1AFB6",
"K. c #A0AFB9",
"L. c #A2B4BD",
"P. c #A8B6BF",
"I. c #A6B8BE",
"U. c #A9B9BF",
"Y. c #9EB4C0",
"T. c #A4B6C1",
"R. c #A8B7C1",
"E. c #A6B9C2",
"W. c #ABBBC4",
"Q. c #ACBEC9",
"!. c #B1BFC7",
"~. c #B0BFC9",
"^. c #AEC0C7",
"/. c #AEC1C9",
"(. c #B1C0C7",
"). c #B3C3CB",
"_. c #B8C6CE",
"`. c #B6C8CE",
"'. c #B9C8CE",
"]. c #B5C5D0",
"[. c #B9C7D1",
"{. c #BCCBD3",
"}. c #BFD0D9",
"|. c #C1CED6",
" X c #C0CFD9",
".X c #C2D1D6",
"XX c #C4D3DB",
"oX c #C9D6DC",
"OX c #CDDCE3",
/* pixels */
"6.;.{ O.O.{ / Y Q } T { Y ^ +.Q ` Q { Q Q Q I W @.` C $.Y I >.k.>.I Y X.$.^ *.} K Y ` | { 3.O.I ` I Y ..*.{ @.>.I 2.Q ` 1.W ` Q ",
"{ | { Q +.3.1.C C *.Q Y 6.$.Y >.+.2.1.*.Q { { W ` *.K X.W m X.} ^ ( *.| | K ;.T ^ O.O.{ | C ^ *.{ { Q | I W O.| I @.W / G 5.H >.",
"^ H ^ Q T Q { { 1.l.D Q ^ Q I ..` Y ;.X.{ { K } +.+.;.| 6.Q 7 @.T +./ G Y | >.` ( m } $.6.C T D +.{ Q | Q / @.;.` >.} ..G +.4.m ",
"{ ^ } X.Y { | } 2.` ` +.;.;.^ @.X.Q { >.` X.C +./ Q Y X.{ ` 3.C W *.>.X.Y { | >.O.W ..` $.1.| { } Y | ` | / ;.I @.N @.@.Q { W } ",
"G Y { Q Q I T } ^ / @.*.Q | ^ X.6.O.Q ;.$.Q Q { C Q Y X.Y { W O.Y 1.1.@.Y m W { *.6.X.T T Q { $.Y { ^ I 2.*.Y ../ H { X.$.^ { 2.",
"@.Y I @.1.I @.{ +.I 4.2.W | { @.W W 1.Q Q E $.^ K { { $.Y W +.3.X.@.W 1.@.+.O.@.X.{ Q T ;.X.^ Q | W K { Q @...4.^ Y 1.Q ;.Q I I ",
";.Q @.I @.W ^ { } } 4.X.^ W Q G $.W 1.` $.I | | $.Q K } Y >.Y >.*.@.1.` W ` I K { g.>.6.` Q @.R W | X.{ 4.*.} ^ ^ I H T 1./ T T ",
"T { Q *./ | W T ..z < z p w f l b v w.i.w.9.d.b.i x d n b z d 0 d , - 8.y p i b = < i w.f g l x w.e s d e : & _ I ;./ ;.@.^ Q @.",
"Q } ` } T Q } Y I r q p i d - q 8.l e f d g w.v q.s b w.g b f l z i i v d s z f g , p z z s l * d 9.l e g = d ' ..{ I } I *.Y I ",
"{ } Q 2./ H 4.} 6.y s z q 0 q.b d 9.p.l y r s 8.w.e l s q.b f f x r y d 8.d 0.y r q f r.d z 9.v f z q y < , e f...2.{ D Q { X.Q ",
"` Q @.{ T | f q , F.n.Q.).{.R._._.{.).L.F.Q.R.R.{.P.XX_.Z.[..XXX.X).L.Z.P.R.R.Z.N.L.L.Q.R.L.'.[.R.P.[.Q.b 9.9.+ w $ &.{ } Y / ..",
"| @.Q $.4.} d f q F.L.z.oX{.).L.|.R.R.Q.F.S.).F.{.W..XR.Q.).).W.!.'.H.U.F.L._.L./.z.L._.S.L.[.).W.L.P.P.r.0.l q = q ,.Q *.Q Q 6.",
"*.{ +.J O.1.= d d C.u.S.R.{.!.oXQ.'.T.R.G.W.P.Q.|.U._.`.{.R.{.[.W.{.L.N.H.P.H._.F.W.v.R.R.{.'.!.Z.).R.W.8.d.q.  - e *.{ | Q @.^ ",
"@.{ W Q ` >.i y i H./.).{.|.!.P.{.R.W.).^.F.Q.L.~._.N.P.L.R.W.R.S.R.N.R.).).H.v.n.S.A.{.B.Z.R.P.L./.W.L.r.d.9.# = & ,.Q Y @.m k.",
"` I C 3.2./ f f r R./.R.OX_._.L.R.L.Z.R.Z.N.Q.N.N.N.Z.P.L.F.L.c.Z.F.).Q.}.Q.Z.M.x.x.M.L.M.n.W.S.v.C.n.r.C.u.Y.$ = q W Q { $.} { ",
"` Q *.Q { W e q s ).oX{._.`.W.L.R.Q.H.b.).Z.F.A.L.H.L.Q.F.v.N.x.L.v.C.F.P.M.S.n.A.i.A.M.M.H.F.L.A.b.d.r.9.M.r.+ $ : j.C X.Q O.} ",
"E 2.{ O.>.I 0.k d `..X.X_.)._.S.v.M.B.C.S.L.S.F.c.T.Q.H.F.H.L.P._.N.H.N.M.Z.p.T.H.C.n.v.S.A.F.H.L.Z.L.C.p.8.d.# e e f.1.W Q / T ",
"@.Y { Q | +.r.g l `..X).R.Q.M.H.c.n.S.W.!.L.S.v.Z.z.L.N.N./.L.B.XXR.B.S.T.M.p.N.p.S.F.n.v.Z.M.H.n.C.p.N.e.y.d.@ - = ,.Q ^ ` { Q ",
"X.1.Y Y I I l b d .X|.).F.P.{.Z.C.A.M.R.Z.S.n.F.S.L.P.M.L.R.H.L.S.Z.n.z.N.e.M.M.N.R.Z.S.C.W.A.F.x.F.Q.P.9.r.e = - : 3.@.} 1.@.m ",
"*.Q { G 1.Q g z u._.)._.L.L.W.c.Z.H.).W.Z.T.n.S.R.v.F.R.C.F.N.M.C.R.x.r.n.v M.V.F.Z.n.A.M.M.S.G.M.c.p.A.b.z y.  e : P I C Q $.T ",
"2.{ 6.{ Y @.a.v v ^.H.N.c.H.W.K.Q.L.L.S.).F.W.C.H.Z.).F.L.).P.M.c.S.C.N.H.x.c.H.Q.c.T.Z.S.N.W.L.C.C.W.v.u.9.9.+ q = &.T $.@.Q I ",
"` { W ^ l.+.b w.z H.L.F.H.[.H.F.Z./.L.L.S.M.T.P.W.C.T.L.L.^.F.L.C.C.C.c.u.F.S.S.L.Q.Z.S.B.T.M.x.F.t.n.x.r.0.i.. & < f.{ *.1.V { ",
"I Y I { $.C v c.y Q.W.Z.Z.C.N.S.n.N.S.L.F.Z.n._.c.H.t./.).Z.S.r.Z.A.r.L.W.L.n.z.L.Q.F.N.).~.v.M.C.N.n.A.y.d p.$ = < [ @.*.$.m K ",
"{ X.>.m X.I d s q R._.L./.).L._.Q.F.F.n.C.R.L.R.(.L.F.c.H.D.M.S.F.t.F.c.R.c.c.N.L.L.W.L.N.C.N.N.M.x.V.g q.l v $ , q ' ` ` Q I I ",
"4.T 4.I K o.8.x f L.P.S.L.m.S.R.L.W.F.L.F._.!.L.L.K.F.M.F.A.M.S.L.C.W.H.H.R.c.M.L. XH.T.).Z.Z.c.M.r.l n p.k d.y i i P >.| $.} { ",
"{ I | ( } Q t 9.y S.).R.C.H.Q.H.B.R.C.S.R.`.W.).Q.F.L.N.L.F.L.N.n.Z.A.c.H.S.v.z.F.).L.R.L.[.c.T.S.b.b.p.s.l w.$ : l f.` O.Y / Q ",
"{ Q $.I 1.*.p p s XX{.[.C.H.T.P.H.C.Q.R.L.Q.R.~.L.C.T.M.C.L.N.B.c.x.M.A.L.W.I.W.H.F.P.A.D.e.x.n.p.x.b.A.n.q.v # & - ] W X.O.I C ",
"Q Q C { +.I = s z `.J.|.N.F.Q.W.Q.H.Q./.).C.W.P.L.Z.S.v.C.H.C.L.W.W.c.c.C.F.Q.B.R.L.Q.W.F.S.x.C.n.c.u.r.v 8.l : y q ,.1.C } E Q ",
"{ m T I { $.d d d {..XOXQ.Z.Z.L.H.R.F.P.F.L.!.).M.S.Z.v.p.n.R.H.Z.C.R.A.S.'.[.W.T.N.T.N.A.S.c.p.V.T.b.r.y.d.v @ : y [ / $.@.E Q ",
"Q Q $.%.Q / g b r XX!.[.W.A.L.T.R.).P.C.v.T.C.Q.e.p.L.F.N.x.C.L.T.n.P.N.).F.H.C.C.C.A.M.c.p.A.L.N.A.r.T.p.9.l O w & _ W I ^ $.G ",
"R Q O...C %.z v v {.|.G.R.N.Z.C.F.Z.M.P.N.c.c.F.r.Q.v.L.M.A.Z.C.N.A.S.W.Z.C.W.S.Z.M.S.R.Z.L.v.N.C.v.C.9.q.b.c.= q : ] +.k.C @.` ",
"X.{ ..{ Q 6.9.d b [.{.(.F.n.R.E.C./.Q.Z.x.M.T.S.F.N.E.x.L.c.L.F.H.M.W.R.S.N.L.Z.Z.M.H.C.H.H.n.N.).r.v.b.p.a.c X 0 y j.Q 4.G 1.I ",
"@.Y { 2.Y I b g s F.P.Q.L.Q.P.S.c.c.N.F.W.W.H.T.S.C.L.H._.S.Z.T.R.L.S.T.H.x.F.n.A.c.M.S.H.C.F.c.p.T.x.M.l p.y.: e e _ C $.O.{ / ",
"+.I I { $.@.y y.y ].R.R.[.Z.S.N.Z.S.m.P.Z.F.Q.n.M.n.x.x.W.T.~.B.~.L.W.R.F.N.C.^.M.M.S.p.W.A.L.x.S.S.M.p.y.r.0.& g i _ m I C M T ",
"H D 1...;.+.w.l p T.Q.Q.P.}.Q.v.n.H.N.M.L.F.Z.Z.F.L.C.F.R.P.R.P.).P.L.R.U.F.M.N.S.F.Z.c.H.v.V.c.A.p.A.H.8.r.y., e w ' { +.^ C } ",
"I $.C I 5.{ p t s n.N.N.c.p.r.N.M.S.M.M.n.R.E.C.L.L.F.L._.N.S.W.B.S.Q.H.c.v.v.W.L.L.c.M.x.x.p.p.A.v.d.H.p d l O , , ' 1.M N ~ h.",
"D I Q } { | b p l S.G.M.e.M.p.t.M.N.C.N.S.^.H.M._.Z.S._.[.P.L.W.Q.H.Q.p.R.C.p.N.L.M.S.c.c.Q.H.n.M.x.L.u.l 9.q = e q <.I | C ~ +.",
"+...} ) Y X.l i p v.L.L.M.M.M.S.S.A.n.N.N.T.N.n.W.L.R.L.C.W.L._.T.C.M.N.c.F.S.S.N.n.L.T.c.M.N.n.A.M.Q.S.l b y , < $ [ 1.O.$.{ | ",
"Q C I H Q D 0 8.y.N.T.).N.c.T.B.n.n.c.L.N.~.P.L.H.F.R.F.L.I.).D.P.C.z.Z.H.x.N.S.M.T.x.T.S.x.A.N.M.p.Z.v.b q.v & p q.] Q Q I ^ Q ",
"Q I C { +.{ g y.b Q.L.S.S.n.C.H.H.F.c.n.Q.H.{.N.L.).Z.{.Z.B.B.N.H.H.M.H.N.v.F.W.M.z.r.M.C.M.C.r.c.m.T.T.9.b 9.0 q y ' ^ T $.C M ",
"C { C W D Q i b y.F.I.R.^.N.z.G.R.A.M.N.n.N.F._.[.Q.P.R.S.P.Z./.M.N.R.B.N.Z.F.m.n.M.M.C.S.N.N.F.L.u.H.p.9.w.g 0 w q _ { O.K M } ",
"T Q I | J B b v l ).~.Q.N.N.Z.L.N.Q.N.W.S.M.Z.S.C.L.W.U.A.N.H.S.c.Z.M.x.Z.T.H.n.c.x.n.c.Z.v.n.c.C.M.V.p.d.a.r.- i e V Q K I Q E ",
"M G E *.Q I p 8.b _.R.R.L.S.A.C.N.N.L.R.n.C.n.C.F.S.N.M.n.G.N.L.A.L.S.F.~.x.Z.M.E.A.A.L.A.S.n.F.N.p.y.q.q.y.f q q p L Q Q I { C ",
"} C M E R ) e b w..X`.).S.x.F.A.S.C.F.).T.W.N.S.M.Z.F.C.n.M.N.N.Z.C.L.T.F.x.M.V.n.n C.x.W.Z.L.C.N.p.A.A.w.q.p.i y , P m ` C O.Q ",
"I { M ^ O.{ = l y W._.XXT.n.c.P.H.M.N.C.v.S./.Z.T.F.M.R.T.Y.).C.F.B.H.p.A.T.A.S.T.).E.F.M.F.M.F.p.n.d.p.v d.d.X , e W I } C C A ",
"~ T D T >.U < , g [.).J.T.M.c.S.Z.z.C.D.c.N.Z.L.C.C.S.L.c.M.M.S.A.c.M.A.A.c.H.M.S.c.C.H.M.N.C.Z.L.M.p.u.l p.y $ , < f.M K { } Q ",
"Q { I T Q ) p d d R.).R.T.N.H.Z.b.P.M.N.N.M.R.).R.S.C.Z.R.F.L.S.N.M.n.d.Z.C.9.v.N.L.n.N.Z.t.t.c.V.x.c.M.l l q.+ w : W W Q M Q D ",
"Q ) I M T C e e y L._._.x.F.A.L.N.H.L.c.W.Z.S.R.B.S.n.H.M.R.Z.N.Z.H.M.Z.c.p.v.d.F.x.M.R.m.D.C.n.y.N.x.M.b d.e.O q 0 ` Q I @.~ ~ ",
"..E I | { ) , y l L.Z.F.H.z.c.H.C.x.c.N.M.p.x.v.r.c.N.N.C.Q.t.u.Q.x.x.p.x.F.N.n.L.v.S.M.x.p.C.D.d.d.V.v.f d l o q = G C I I { / ",
"} U I C Q Q i f y F.F..XL.W.Z.F.N.C.F.p.Z.Q.V./.F.).F.L.S.C.M.r.u.M.c.d.x.n.H.).M.c.B.c.x.p.H.x.v.y.9.b z d a # $ : P ^ Q Y I M ",
"D O.D T | B e l d L.M.N.v.M.P.N.A.v.N.C.x.v.A.E.n.N.N.H.N.Q./.n.x.n.z.N.N.Z.S.F.C.N.H.e.9.M.n.C.x.q.q.q.w.l y + & ; *.B C Q Q M ",
"E 5 T B { J 0 # : p.d.b.C.B.Z.c.S.Q.y.p.r.p.n.[.M.M.v.M.r.p.p.x.M.e.p.q.y.b.M.x.u.p.c.C.V.p.p.b v.8.d l f z f # & < V H D Q E I ",
"J U E { B 8 y % f p.p.F.S.p.H.p.A.T.p.Y.A.9.x.d.M.e.D.b.n.M.n.y.x.9.v z c.r.D.n p.V.V.u.p.p.M.r.C.l 8.8.y z 0.$ & - K I Y B I 5 ",
"B M I D 7 6 $ < : q.9.E.E.C.Q.H.L.V.p.c.u.c.x.r.A.r.n.9.u.p.M.9.n.r.p.d.p.M.c.r.T.u.V.d.s.s.c.y.c.b p.q.q.d l O # w W C M I / 7 ",
"U h B A ^ E < % $ v e 8.i.d k c M.d l l l d.l y.8.r 8.8.p * e v y y z s q d v 9.d 9.r.r.8.9.p y l l i b , $ , & & + ' 3 D Q D B ",
"E %.h A M 3 w : , g q 8.l i s q.d b b a.v c l l v s d n g y 9.r p q , y d v w.9.v 8.q.l p.z d = b s 0 z w $ i , w , P M A C J 7 ",
"B Z Q D I 4 f : 9 p e f v q z b r.9.y.0 9.q.f d l q.q r g 0 q.e r i k p q b w.l y.g w.r.y.n b q y d d e q = , : : 9 K M C 7 h B ",
"S Q +.Z I ~ { U 8 + & , p & : < e e * : y = e = , f $ : w < ; q , < , = e : # d , & e @ & e i # > e = $ - : $ C S F M E U C C ~ ",
"{ ~ J M U U A Z 7 = q & : = & d , e p = < $ , - : - - , y , e $ y g e $ < , = < : $ , : = - e = = : e q < $ < { Q 5 B 8 Q U D 8 ",
"..A J Z H 5 { D Z : e : < = 9 e , % ; ; - O + : = e < e f u , > = < u 9 = < - $ : e = = = ; ; , = > $ , = = q L 3 M { D D I 7 T ",
"U U 6 F B ~ ~ F U 8 8 U U Q S M Z 5 E 7 F 2 U F Z 5 F D S B Z B Z 6 M { B U M U H J 5 S F I 8 H 6 5 ~ I 6 D T 8 8 | A I C Z 7 h ",
"E I A ! M C B 1 h H D { Z 1 I Q 8 U F U Y 8 7 U C A M 1 h 8 8 2 7 J S h { E h M h B A F E B 6 5 2 S 8 E { B { U I E 5 5 8 U E 7 ",
"J T H 8 U Y ~ D A I D S 5 8 Z M 6 Z 7 Y B 8 2 S Z 8 7 S I Z Z S 2 1 S U E 3 M U M 6 Q 3 A h I S S B h J D B M U E C A C A Q h F ",
"S S B S U Y S D 3 U U Z j 3 A B 3 U Z Z M Z h S Z h 4 3 Z Q M 4 Z S S ~ U M 4 4 7 C S M B U M A 7 I 7 M 6 M 8 ~ S D S C D M I U "
};
